<svg width="100" height="45" viewBox="0 0 100 45" fill="none" xmlns="http://www.w3.org/2000/svg">
<path d="M9.36336 30.2951C6.52985 30.2951 4.26091 29.7625 2.55655 28.6973C0.852183 27.6107 0 25.9596 0 23.7439C0 22.5722 0.202393 21.6774 0.60718 21.0596C1.01197 20.4417 1.6085 20.1328 2.39676 20.1328C2.97199 20.1328 3.44069 20.282 3.80287 20.5802C4.16504 20.8785 4.34613 21.262 4.34613 21.7307C4.34613 22.1568 4.31418 22.5296 4.25026 22.8492C4.25026 22.9344 4.22896 23.0835 4.18635 23.2965C4.16504 23.5096 4.15439 23.7333 4.15439 23.9676C4.15439 24.9263 4.63374 25.6401 5.59245 26.1088C6.57246 26.5775 7.93595 26.8118 9.68293 26.8118C11.4938 26.8118 12.9106 26.4922 13.9332 25.8531C14.9558 25.1927 15.4671 24.2766 15.4671 23.1048C15.4671 22.3805 15.2328 21.7626 14.7641 21.2513C14.2954 20.7187 13.7095 20.282 13.0064 19.9411C12.3034 19.5789 11.3127 19.1422 10.0345 18.6308C8.394 17.9917 7.05181 17.3845 6.00789 16.8093C4.98527 16.2341 4.10113 15.4565 3.35547 14.4765C2.63112 13.4751 2.26894 12.2395 2.26894 10.7695C2.26894 9.23553 2.67372 7.87204 3.4833 6.67898C4.31418 5.48593 5.49658 4.55918 7.03051 3.89874C8.58574 3.2383 10.4073 2.90807 12.4951 2.90807C14.0504 2.90807 15.4778 3.14243 16.7774 3.61113C18.0769 4.05852 19.1102 4.75092 19.8772 5.68832C20.6654 6.62572 21.0596 7.77617 21.0596 9.13966C21.0596 10.4819 20.8572 11.4938 20.4524 12.1756C20.0476 12.8573 19.4511 13.1982 18.6628 13.1982C18.1089 13.1982 17.6402 13.0277 17.2567 12.6869C16.8945 12.346 16.7134 11.9412 16.7134 11.4725C16.7134 11.0677 16.7454 10.6949 16.8093 10.354C16.8732 9.71489 16.9052 9.3101 16.9052 9.13966C16.9052 8.24487 16.4684 7.56312 15.5949 7.09442C14.7215 6.62572 13.6349 6.39137 12.3353 6.39137C10.5032 6.39137 9.09705 6.73225 8.11704 7.41399C7.15834 8.07443 6.67898 9.01183 6.67898 10.2262C6.67898 11.0358 6.92399 11.7282 7.41399 12.3034C7.9253 12.8786 8.55379 13.358 9.29945 13.7414C10.0451 14.1249 11.089 14.583 12.4312 15.1156C14.0504 15.776 15.3499 16.3726 16.33 16.9052C17.31 17.4378 18.1408 18.1621 18.8226 19.0782C19.5256 19.9943 19.8772 21.1235 19.8772 22.4657C19.8772 24.9796 18.9185 26.9183 17.001 28.2818C15.1049 29.624 12.559 30.2951 9.36336 30.2951Z" fill="#818CF8"/>
<path d="M24.7179 30.1992C23.9083 30.1992 23.3331 29.7731 22.9922 28.921C22.6726 28.0688 22.5129 26.7053 22.5129 24.8305C22.5129 22.0609 22.907 19.4298 23.6953 16.9371C23.887 16.3193 24.1959 15.8719 24.622 15.5949C25.0694 15.2967 25.6872 15.1476 26.4755 15.1476C26.9016 15.1476 27.1999 15.2008 27.3703 15.3073C27.5407 15.4139 27.626 15.6163 27.626 15.9145C27.626 16.2554 27.4662 17.0224 27.1466 18.2154C26.9336 19.0676 26.7631 19.8133 26.6353 20.4524C26.5075 21.0915 26.4009 21.8798 26.3157 22.8172C27.0188 20.985 27.807 19.4937 28.6805 18.3432C29.554 17.1928 30.4062 16.3726 31.2371 15.8826C32.0893 15.3926 32.8669 15.1476 33.5699 15.1476C34.9547 15.1476 35.6471 15.84 35.6471 17.2247C35.6471 18.0556 35.4128 19.5576 34.9441 21.7307C34.5393 23.5842 34.3369 24.8092 34.3369 25.4057C34.3369 26.2579 34.6458 26.684 35.2636 26.684C35.6897 26.684 36.1904 26.4283 36.7656 25.917C37.3621 25.3844 38.1504 24.5322 39.1304 23.3605C39.3861 23.0622 39.6737 22.9131 39.9933 22.9131C40.2702 22.9131 40.4833 23.0409 40.6324 23.2965C40.8028 23.5522 40.888 23.9037 40.888 24.3511C40.888 25.2033 40.6857 25.8638 40.2809 26.3325C39.3648 27.4616 38.3741 28.3883 37.3089 29.1127C36.265 29.8371 35.0719 30.1992 33.7297 30.1992C32.6432 30.1992 31.823 29.8903 31.269 29.2725C30.7151 28.6333 30.4382 27.7172 30.4382 26.5242C30.4382 25.9277 30.5873 24.8624 30.8856 23.3285C31.1625 21.9863 31.301 21.0596 31.301 20.5483C31.301 20.2074 31.1838 20.037 30.9495 20.037C30.6725 20.037 30.2784 20.3991 29.7671 21.1235C29.2771 21.8265 28.7657 22.7639 28.2331 23.9357C27.7218 25.1074 27.3064 26.3431 26.9868 27.6427C26.7525 28.644 26.4755 29.3257 26.1559 29.6879C25.8577 30.0288 25.3783 30.1992 24.7179 30.1992Z" fill="#818CF8"/>
<path d="M42.4889 13.0384C41.5941 13.0384 40.923 12.836 40.4756 12.4312C40.0282 12.0051 39.8045 11.4193 39.8045 10.6736C39.8045 9.92793 40.0921 9.3101 40.6673 8.82009C41.2639 8.30878 41.9989 8.05313 42.8724 8.05313C43.6606 8.05313 44.2998 8.24487 44.7898 8.62835C45.2798 9.01184 45.5248 9.5551 45.5248 10.2582C45.5248 11.1103 45.2478 11.7921 44.6939 12.3034C44.14 12.7934 43.405 13.0384 42.4889 13.0384ZM42.2332 30.1992C40.8484 30.1992 39.8365 29.7092 39.1973 28.7292C38.5795 27.7492 38.2706 26.4496 38.2706 24.8305C38.2706 23.8718 38.3878 22.6468 38.6221 21.1554C38.8778 19.6428 39.1973 18.2367 39.5808 16.9371C39.7726 16.2554 40.0282 15.7867 40.3478 15.531C40.6673 15.2754 41.1787 15.1476 41.8817 15.1476C42.9682 15.1476 43.5115 15.5097 43.5115 16.2341C43.5115 16.7667 43.3091 18.0024 42.9043 19.9411C42.393 22.2846 42.1374 23.8718 42.1374 24.7026C42.1374 25.3418 42.2226 25.8318 42.393 26.1727C42.5635 26.5135 42.8511 26.684 43.2559 26.684C43.6393 26.684 44.1187 26.4177 44.6939 25.8851C45.2691 25.3524 46.0361 24.5109 46.9948 23.3605C47.2505 23.0622 47.5381 22.9131 47.8576 22.9131C48.1346 22.9131 48.3476 23.0409 48.4968 23.2965C48.6672 23.5522 48.7524 23.9037 48.7524 24.3511C48.7524 25.2033 48.55 25.8638 48.1453 26.3325C46.0361 28.9103 44.0654 30.1992 42.2332 30.1992Z" fill="#818CF8"/>
<path d="M63.2319 22.9131C63.5088 22.9131 63.7219 23.0409 63.871 23.2965C64.0415 23.5522 64.1267 23.9037 64.1267 24.3511C64.1267 25.2033 63.9243 25.8638 63.5195 26.3325C62.6034 27.4616 61.6127 28.3883 60.5475 29.1127C59.5036 29.8371 58.3105 30.1992 56.9683 30.1992C55.8392 30.1992 54.9231 29.7944 54.2201 28.9849C53.0057 29.7731 51.7381 30.1779 50.4172 30.1992C50.1402 34.311 49.5117 37.7411 48.5317 40.4893C47.5517 43.2589 46.1137 44.6437 44.2176 44.6437C43.0671 44.6437 42.2149 44.2283 41.661 43.3974C41.1071 42.5665 40.8301 41.4161 40.8301 39.9461C40.8301 37.8582 41.3095 35.4189 42.2682 32.628C43.2269 29.8584 44.7076 26.8012 46.7102 23.4563C46.7102 20.3459 46.6889 18.1835 46.6463 16.9691C46.625 16.3513 46.87 15.8613 47.3813 15.4991C47.8926 15.1369 48.5317 14.9558 49.2987 14.9558C49.7461 14.9558 50.0657 15.0517 50.2574 15.2434C50.4704 15.4139 50.5876 15.7654 50.6089 16.298C50.6089 16.8306 50.6196 17.2247 50.6409 17.4804C51.3226 16.6282 51.9937 16.021 52.6542 15.6589C53.3146 15.2754 54.0177 15.0836 54.7633 15.0836C55.9564 15.0836 56.9257 15.563 57.6714 16.5217C58.4384 17.4804 58.8218 18.7374 58.8218 20.2926C58.8218 21.4218 58.6408 22.5189 58.2786 23.5842C57.9164 24.6494 57.4157 25.6187 56.7766 26.4922C57.224 26.6201 57.5968 26.684 57.8951 26.684C58.5981 26.684 59.2692 26.4283 59.9084 25.917C60.5475 25.4057 61.3677 24.5535 62.3691 23.3605C62.6247 23.0622 62.9123 22.9131 63.2319 22.9131ZM50.577 27.1314C51.3439 26.9609 52.047 26.5455 52.6861 25.8851C53.3466 25.2033 53.8685 24.3724 54.252 23.3924C54.6355 22.3911 54.8272 21.3472 54.8272 20.2606C54.8272 19.6215 54.6994 19.1422 54.4437 18.8226C54.1881 18.4817 53.8472 18.3113 53.4211 18.3113C52.6542 18.3113 51.7274 19.1209 50.6409 20.74C50.6196 21.6774 50.6089 23.0515 50.6089 24.8624C50.6089 25.8424 50.5983 26.5988 50.577 27.1314ZM44.4732 41.512C45.0484 41.512 45.5278 40.255 45.9113 37.741C46.2948 35.2484 46.5398 32.1379 46.6463 28.4096C45.7302 30.5401 45.0058 32.5747 44.4732 34.5134C43.9406 36.4521 43.6743 38.0819 43.6743 39.4028C43.6743 40.0846 43.7595 40.6065 43.9299 40.9687C44.0791 41.3309 44.2602 41.512 44.4732 41.512Z" fill="#818CF8"/>
<path d="M65.7387 13.0384C64.844 13.0384 64.1729 12.836 63.7255 12.4312C63.2781 12.0051 63.0544 11.4193 63.0544 10.6736C63.0544 9.92793 63.342 9.3101 63.9172 8.82009C64.5137 8.30878 65.2487 8.05313 66.1222 8.05313C66.9105 8.05313 67.5496 8.24487 68.0396 8.62835C68.5296 9.01184 68.7747 9.5551 68.7747 10.2582C68.7747 11.1103 68.4977 11.7921 67.9438 12.3034C67.3899 12.7934 66.6548 13.0384 65.7387 13.0384ZM65.4831 30.1992C64.0983 30.1992 63.0863 29.7092 62.4472 28.7292C61.8294 27.7492 61.5204 26.4496 61.5204 24.8305C61.5204 23.8718 61.6376 22.6468 61.872 21.1554C62.1276 19.6428 62.4472 18.2367 62.8307 16.9371C63.0224 16.2554 63.2781 15.7867 63.5976 15.531C63.9172 15.2754 64.4285 15.1476 65.1316 15.1476C66.2181 15.1476 66.7614 15.5097 66.7614 16.2341C66.7614 16.7667 66.559 18.0024 66.1542 19.9411C65.6429 22.2846 65.3872 23.8718 65.3872 24.7026C65.3872 25.3418 65.4724 25.8318 65.6429 26.1727C65.8133 26.5135 66.1009 26.684 66.5057 26.684C66.8892 26.684 67.3686 26.4177 67.9438 25.8851C68.519 25.3524 69.286 24.5109 70.2447 23.3605C70.5003 23.0622 70.7879 22.9131 71.1075 22.9131C71.3845 22.9131 71.5975 23.0409 71.7466 23.2965C71.9171 23.5522 72.0023 23.9037 72.0023 24.3511C72.0023 25.2033 71.7999 25.8638 71.3951 26.3325C69.286 28.9103 67.3153 30.1992 65.4831 30.1992Z" fill="#818CF8"/>
<path d="M81.8555 21.0915C82.452 21.0915 82.7503 21.5389 82.7503 22.4337C82.7503 24.1168 81.4294 24.9583 78.7876 24.9583C78.2763 24.9583 77.5413 24.8624 76.5826 24.6707C76.8596 25.9916 77.0833 27.4616 77.2537 29.0807C77.4454 30.6786 77.5413 31.9995 77.5413 33.0434C77.5413 35.3443 77.1685 37.1019 76.4228 38.3163C75.6772 39.5306 74.6972 40.1378 73.4828 40.1378C71.9489 40.1378 70.8517 39.0513 70.1912 36.8782C69.5521 34.7051 69.2325 31.4242 69.2325 27.0355C69.2325 22.945 69.6693 18.8013 70.5428 14.6043C71.4376 10.386 72.6519 6.90268 74.1858 4.15439C75.7411 1.3848 77.4455 0 79.299 0C80.3003 0 81.0779 0.447396 81.6318 1.34219C82.207 2.23698 82.4946 3.44069 82.4946 4.95331C82.4946 9.95989 79.5013 15.4139 73.5148 21.3152C73.3017 23.4031 73.1952 25.2353 73.1952 26.8118C73.1952 29.0062 73.2698 31.2538 73.4189 33.5547C73.568 35.8769 73.813 37.038 74.1539 37.038C74.793 37.038 75.1126 35.9302 75.1126 33.7145C75.1126 32.0527 74.9954 30.4442 74.7611 28.889C74.548 27.3338 74.2498 25.6933 73.8663 23.9676C73.845 23.6907 73.9302 23.3392 74.1219 22.9131C74.335 22.487 74.5906 22.1141 74.8889 21.7946C75.1872 21.475 75.4535 21.3152 75.6878 21.3152C76.1139 21.3152 76.6252 21.3365 77.2217 21.3791C77.4135 21.4004 77.6372 21.4111 77.8928 21.4111C78.745 21.4111 79.6931 21.3365 80.737 21.1874C80.9074 21.1661 81.0885 21.1448 81.2803 21.1235C81.472 21.1022 81.6638 21.0915 81.8555 21.0915ZM78.6279 3.16373C78.2444 3.16373 77.765 3.81352 77.1898 5.1131C76.6359 6.41268 76.082 8.13835 75.528 10.2901C74.9741 12.4206 74.4948 14.6789 74.09 17.065C75.7943 15.1262 77.1046 13.113 78.0207 11.0251C78.9368 8.91597 79.4055 6.94529 79.4268 5.1131C79.4268 3.81352 79.1605 3.16373 78.6279 3.16373Z" fill="#818CF8"/>
<path d="M91.5244 15.1476C92.0145 15.1476 92.3553 15.2115 92.5471 15.3393C92.7388 15.4671 92.8347 15.6802 92.8347 15.9784C92.8347 16.4897 92.5577 18.3113 92.0038 21.4431C91.5138 24.447 91.2262 26.2259 91.141 26.7798C90.3527 32.2551 89.2662 36.5906 87.8814 39.7863C86.4966 42.982 84.6537 44.5798 82.3528 44.5798C81.2663 44.5798 80.3821 44.2389 79.7004 43.5572C79.0187 42.8968 78.6778 42.0233 78.6778 40.9367C78.6778 39.9354 78.9015 38.9128 79.3489 37.8689C79.8176 36.825 80.6698 35.6212 81.9054 34.2578C83.1624 32.9156 84.9307 31.371 87.2103 29.624L87.3061 28.889C87.4553 28.1007 87.6257 26.9716 87.8174 25.5016C87.3914 27.0355 86.7948 28.2073 86.0279 29.0168C85.2609 29.8051 84.4513 30.1992 83.5991 30.1992C82.6404 30.1992 81.8522 29.7625 81.2343 28.889C80.6378 27.9942 80.3395 26.8864 80.3395 25.5655C80.3395 23.9676 80.4461 22.5083 80.6591 21.1874C80.8722 19.8452 81.2237 18.4285 81.7137 16.9371C81.9267 16.298 82.225 15.84 82.6085 15.563C82.992 15.286 83.5991 15.1476 84.43 15.1476C84.8987 15.1476 85.2183 15.2221 85.3887 15.3712C85.5805 15.5204 85.6763 15.7441 85.6763 16.0423C85.6763 16.2128 85.5592 16.788 85.3248 17.768C85.1118 18.5563 84.9413 19.27 84.8135 19.9091C84.6431 20.7826 84.4939 21.6241 84.3661 22.4337C84.2383 23.222 84.1744 23.8718 84.1744 24.3831C84.1744 25.1927 84.3981 25.5974 84.8455 25.5974C85.165 25.5974 85.5592 25.2779 86.0279 24.6387C86.5179 23.9996 87.0292 23.0302 87.5618 21.7307C88.1157 20.4311 88.6483 18.8332 89.1596 16.9371C89.3301 16.298 89.5857 15.84 89.9266 15.563C90.2888 15.286 90.8214 15.1476 91.5244 15.1476ZM82.7044 41.48C83.237 41.48 83.8335 40.8622 84.4939 39.6265C85.1544 38.3908 85.8148 36.3349 86.4753 33.4588C84.8348 34.8436 83.6418 36.1006 82.8961 37.2297C82.1717 38.3802 81.8096 39.3815 81.8096 40.2337C81.8096 40.5959 81.8735 40.8941 82.0013 41.1285C82.1504 41.3628 82.3848 41.48 82.7044 41.48Z" fill="#818CF8"/>
<path d="M96.9002 30.1992C95.9628 30.1992 95.2491 29.9436 94.7591 29.4323C94.2904 28.921 94.056 28.2499 94.056 27.419C94.056 26.4603 94.3223 25.6933 94.8549 25.1181C95.4089 24.5429 96.1758 24.2553 97.1558 24.2553C98.0932 24.2553 98.7963 24.4896 99.265 24.9583C99.755 25.4057 100 26.0768 100 26.9716C100 27.9516 99.723 28.7399 99.1691 29.3364C98.6152 29.9116 97.8589 30.1992 96.9002 30.1992Z" fill="#818CF8"/>
</svg>
