<svg width="10" height="12" viewBox="0 0 10 12" fill="none" xmlns="http://www.w3.org/2000/svg">
<path d="M0.924479 6.62239L4.77865 2.7578C4.90104 2.63541 5.09896 2.63541 5.22135 2.7578L9.07552 6.62239C9.19792 6.74478 9.19792 6.9427 9.07552 7.06509L8.5651 7.57551C8.4401 7.70051 8.23958 7.69791 8.11979 7.5703L5.67708 5.04166V11.5208C5.67708 11.6927 5.53646 11.8333 5.36458 11.8333H4.63542C4.46354 11.8333 4.32292 11.6927 4.32292 11.5208V5.04166L1.88281 7.5703C1.76042 7.6953 1.5599 7.69791 1.4375 7.57551L0.927083 7.06509C0.802083 6.9427 0.802083 6.74478 0.924479 6.62239ZM0.3125 1.52082H9.6875C9.85938 1.52082 10 1.3802 10 1.20832V0.479156C10 0.307282 9.85938 0.166656 9.6875 0.166656H0.3125C0.140625 0.166656 0 0.307282 0 0.479156V1.20832C0 1.3802 0.140625 1.52082 0.3125 1.52082Z" fill="white"/>
</svg>
