<svg width="29" height="32" viewBox="0 0 29 32" fill="none" xmlns="http://www.w3.org/2000/svg">
<path d="M19.1875 23.875H27L24.8047 21.6797C24.5099 21.3848 24.276 21.0348 24.1165 20.6495C23.957 20.2642 23.8749 19.8513 23.875 19.4344V14.5C23.8752 12.5608 23.2743 10.6693 22.1551 9.08576C21.0358 7.50224 19.4531 6.30463 17.625 5.65781V5.125C17.625 4.2962 17.2958 3.50134 16.7097 2.91529C16.1237 2.32924 15.3288 2 14.5 2C13.6712 2 12.8763 2.32924 12.2903 2.91529C11.7042 3.50134 11.375 4.2962 11.375 5.125V5.65781C7.73438 6.94531 5.125 10.4188 5.125 14.5V19.4359C5.125 20.2766 4.79063 21.0844 4.19531 21.6797L2 23.875H9.8125M19.1875 23.875H9.8125M19.1875 23.875V25.4375C19.1875 26.6807 18.6936 27.873 17.8146 28.7521C16.9355 29.6311 15.7432 30.125 14.5 30.125C13.2568 30.125 12.0645 29.6311 11.1854 28.7521C10.3064 27.873 9.8125 26.6807 9.8125 25.4375V23.875" stroke="#4B5563" stroke-width="3" stroke-linecap="round" stroke-linejoin="round"/>
</svg>
