<svg width="20" height="21" viewBox="0 0 20 21" fill="none" xmlns="http://www.w3.org/2000/svg">
<path d="M4.375 16.8958C4.89258 16.8958 5.3125 16.4759 5.3125 15.9583C5.3125 15.4403 4.89258 15.0208 4.375 15.0208C3.85742 15.0208 3.4375 15.4403 3.4375 15.9583C3.4375 16.4759 3.85742 16.8958 4.375 16.8958ZM18.75 11.5833H14.9371L17.6332 8.88722C18.1215 8.39894 18.1215 7.60753 17.6332 7.11964L13.2137 2.70011C12.9695 2.45597 12.6496 2.33409 12.3297 2.33409C12.0098 2.33409 11.6898 2.45597 11.4457 2.70011L8.75 5.3962V1.58331C8.75 0.893079 8.19023 0.333313 7.5 0.333313H1.25C0.559766 0.333313 0 0.893079 0 1.58331V15.9583C0 18.3747 1.95859 20.3333 4.375 20.3333H18.75C19.4402 20.3333 20 19.7735 20 19.0833V12.8333C20 12.1431 19.4402 11.5833 18.75 11.5833ZM6.875 15.9583C6.875 16.6568 6.58555 17.2876 6.12227 17.7415C5.97969 17.881 5.82148 17.9966 5.65391 18.095C5.62031 18.115 5.58516 18.1325 5.55078 18.1509C5.37617 18.2423 5.19453 18.3193 5.00313 18.3685C4.80156 18.4212 4.59375 18.4579 4.37578 18.4579H4.375C2.99648 18.4579 1.875 17.3364 1.875 15.9579V12.2079H6.875V15.9583ZM6.875 10.3333H1.875V7.20831H6.875V10.3333ZM6.875 5.33331H1.875V2.20831H6.875V5.33331ZM8.75 8.04777L12.3301 4.46769L15.8656 8.00324L8.75 15.1189V8.04777ZM18.125 18.4583H8.06211L13.0621 13.4583H18.125V18.4583Z" fill="#4B5563"/>
</svg>
