<svg width="29" height="27" viewBox="0 0 29 27" fill="none" xmlns="http://www.w3.org/2000/svg">
<path d="M8.94444 10.0316H8.95833M14.5 10.0316H14.5139M20.0556 10.0316H20.0694M10.3333 18.365H4.77778C4.04107 18.365 3.33453 18.0723 2.81359 17.5514C2.29266 17.0304 2 16.3239 2 15.5872V4.47608C2 3.73937 2.29266 3.03283 2.81359 2.5119C3.33453 1.99096 4.04107 1.6983 4.77778 1.6983H24.2222C24.9589 1.6983 25.6655 1.99096 26.1864 2.5119C26.7073 3.03283 27 3.73937 27 4.47608V15.5872C27 16.3239 26.7073 17.0304 26.1864 17.5514C25.6655 18.0723 24.9589 18.365 24.2222 18.365H17.2778L10.3333 25.3094V18.365Z" stroke="#4B5563" stroke-width="3" stroke-linecap="round" stroke-linejoin="round"/>
</svg>
