<svg width="25" height="18" viewBox="0 0 25 18" fill="none" xmlns="http://www.w3.org/2000/svg">
<path fill-rule="evenodd" clip-rule="evenodd" d="M24.4767 0.649643C24.8118 0.984813 25 1.43934 25 1.91327C25 2.3872 24.8118 2.84173 24.4767 3.1769L10.1782 17.4754C9.84305 17.8104 9.38852 17.9987 8.91459 17.9987C8.44066 17.9987 7.98613 17.8104 7.65096 17.4754L0.501719 10.3261C0.176146 9.98905 -0.00400468 9.53757 6.75651e-05 9.06894C0.00413981 8.60032 0.192109 8.15204 0.523491 7.82066C0.854873 7.48927 1.30315 7.3013 1.77178 7.29723C2.24041 7.29316 2.69188 7.47331 3.02898 7.79888L8.91459 13.6845L21.9494 0.649643C22.2846 0.314574 22.7391 0.126343 23.2131 0.126343C23.687 0.126343 24.1415 0.314574 24.4767 0.649643Z" fill="#4B5563"/>
</svg>
