<svg width="10" height="8" viewBox="0 0 10 8" fill="none" xmlns="http://www.w3.org/2000/svg">
<path fill-rule="evenodd" clip-rule="evenodd" d="M0.292433 1.30251C0.479735 1.11526 0.733736 1.01008 0.998581 1.01008C1.26342 1.01008 1.51743 1.11526 1.70473 1.30251L4.99376 4.59154L8.28278 1.30251C8.37492 1.20711 8.48513 1.13102 8.60699 1.07868C8.72885 1.02633 8.85991 0.998779 8.99253 0.997627C9.12515 0.996474 9.25667 1.02175 9.37941 1.07197C9.50216 1.12219 9.61368 1.19635 9.70746 1.29013C9.80124 1.38391 9.8754 1.49543 9.92562 1.61817C9.97584 1.74092 10.0011 1.87244 9.99996 2.00506C9.99881 2.13768 9.97126 2.26874 9.91891 2.3906C9.86656 2.51246 9.79047 2.62267 9.69508 2.7148L5.6999 6.70998C5.5126 6.89722 5.2586 7.00241 4.99376 7.00241C4.72891 7.00241 4.47491 6.89722 4.28761 6.70998L0.292433 2.7148C0.105189 2.5275 0 2.2735 0 2.00866C0 1.74381 0.105189 1.48981 0.292433 1.30251Z" fill="#9CA3AF"/>
</svg>
