<svg width="12" height="12" viewBox="0 0 12 12" fill="none" xmlns="http://www.w3.org/2000/svg">
<path d="M12 5.98865C12.0061 9.29445 9.31015 11.9976 6.00435 12C4.57657 12.001 3.26509 11.5033 2.23447 10.6715C1.96647 10.4552 1.94644 10.0535 2.18997 9.81002L2.46256 9.53743C2.67084 9.32914 3.00336 9.30636 3.23412 9.48943C3.99343 10.092 4.95437 10.4516 5.99999 10.4516C8.4606 10.4516 10.4516 8.46021 10.4516 5.99999C10.4516 3.53939 8.46021 1.54839 5.99999 1.54839C4.81901 1.54839 3.74639 2.00731 2.94997 2.75642L4.17788 3.98434C4.42175 4.22821 4.24904 4.64516 3.90418 4.64516H0.387096C0.173298 4.64516 0 4.47186 0 4.25806V0.740975C0 0.396121 0.416951 0.223403 0.660822 0.46725L1.8553 1.66173C2.93247 0.632322 4.39238 0 5.99999 0C9.30991 0 11.9939 2.68016 12 5.98865ZM7.62309 7.89471L7.86074 7.58915C8.05763 7.33601 8.01202 6.9712 7.75889 6.77433L6.77419 6.00844V3.48387C6.77419 3.16318 6.51423 2.90322 6.19354 2.90322H5.80645C5.48576 2.90322 5.2258 3.16318 5.2258 3.48387V6.76574L6.80828 7.99657C7.06141 8.19343 7.4262 8.14785 7.62309 7.89471Z" fill="#4B5563"/>
</svg>
