<svg width="15" height="12" viewBox="0 0 15 12" fill="none" xmlns="http://www.w3.org/2000/svg">
<path opacity="0.7" fill-rule="evenodd" clip-rule="evenodd" d="M9.43005 0.209063C9.53392 0.243624 9.62996 0.29831 9.71269 0.369999C9.79542 0.441688 9.86322 0.528975 9.9122 0.626872C9.96119 0.724769 9.99041 0.831358 9.99819 0.940551C10.006 1.04974 9.99217 1.1594 9.95756 1.26325L6.62415 11.2635C6.5543 11.4732 6.404 11.6467 6.2063 11.7456C6.0086 11.8445 5.7797 11.8608 5.56995 11.791C5.36021 11.7212 5.1868 11.5709 5.08787 11.3732C4.98894 11.1755 4.9726 10.9466 5.04244 10.7368L8.37585 0.736575C8.41041 0.632704 8.4651 0.536661 8.53679 0.453931C8.60848 0.371201 8.69577 0.303405 8.79366 0.254418C8.89156 0.205431 8.99815 0.176212 9.10734 0.168429C9.21653 0.160647 9.32619 0.174455 9.43005 0.209063ZM3.92241 2.91079C4.07864 3.06707 4.16641 3.279 4.16641 3.49997C4.16641 3.72095 4.07864 3.93288 3.92241 4.08915L2.01154 6.00003L3.92241 7.91091C4.00201 7.98779 4.0655 8.07974 4.10917 8.18142C4.15285 8.28309 4.17583 8.39244 4.1768 8.50309C4.17776 8.61374 4.15667 8.72348 4.11477 8.8259C4.07287 8.92831 4.01099 9.02136 3.93274 9.0996C3.8545 9.17785 3.76145 9.23973 3.65904 9.28163C3.55662 9.32353 3.44689 9.34462 3.33623 9.34366C3.22558 9.34269 3.11623 9.31971 3.01456 9.27603C2.91288 9.23236 2.82093 9.16887 2.74405 9.08927L0.243995 6.58921C0.0877649 6.43294 0 6.22101 0 6.00003C0 5.77906 0.0877649 5.56713 0.243995 5.41085L2.74405 2.91079C2.90033 2.75456 3.11226 2.6668 3.33323 2.6668C3.55421 2.6668 3.76614 2.75456 3.92241 2.91079ZM11.0776 2.91079C11.2339 2.75456 11.4458 2.6668 11.6668 2.6668C11.8877 2.6668 12.0997 2.75456 12.2559 2.91079L14.756 5.41085C14.9122 5.56713 15 5.77906 15 6.00003C15 6.22101 14.9122 6.43294 14.756 6.58921L12.2559 9.08927C12.1791 9.16887 12.0871 9.23236 11.9854 9.27603C11.8838 9.31971 11.7744 9.34269 11.6638 9.34366C11.5531 9.34462 11.4434 9.32353 11.341 9.28163C11.2385 9.23973 11.1455 9.17785 11.0673 9.0996C10.989 9.02136 10.9271 8.92831 10.8852 8.8259C10.8433 8.72348 10.8222 8.61374 10.8232 8.50309C10.8242 8.39244 10.8472 8.28309 10.8908 8.18142C10.9345 8.07974 10.998 7.98779 11.0776 7.91091L12.9885 6.00003L11.0776 4.08915C10.9214 3.93288 10.8336 3.72095 10.8336 3.49997C10.8336 3.279 10.9214 3.06707 11.0776 2.91079Z" fill="#4B5563"/>
</svg>
