<svg width="20" height="21" viewBox="0 0 20 21" fill="none" xmlns="http://www.w3.org/2000/svg">
<path d="M19.6205 6.57177L10.4799 0.478028C10.1679 0.286036 9.8349 0.284278 9.52006 0.478028L0.379452 6.57177C0.145078 6.72798 0 7.00704 0 7.28602V13.3797C0 13.6587 0.145078 13.9378 0.379491 14.094L9.5201 20.1886C9.83209 20.3806 10.1651 20.3824 10.4799 20.1886L19.6205 14.094C19.8549 13.9378 20 13.6587 20 13.3797V7.28602C20 7.00704 19.8549 6.72798 19.6205 6.57177ZM10.8594 2.79939L17.5893 7.28602L14.587 9.29496L10.8594 6.8061V2.79939ZM9.14061 2.79939V6.8061L5.41292 9.29496L2.4107 7.28602L9.14061 2.79939ZM1.71875 8.89317L3.87277 10.3329L1.71875 11.7726V8.89317ZM9.14061 17.8664L2.4107 13.3798L5.41292 11.3708L9.14061 13.8597V17.8664ZM9.99998 12.3641L6.96424 10.3329L9.99998 8.30165L13.0357 10.3329L9.99998 12.3641ZM10.8594 17.8664V13.8597L14.587 11.3708L17.5893 13.3798L10.8594 17.8664ZM18.2812 11.7726L16.1272 10.3329L18.2812 8.89317V11.7726Z" fill="#4B5563"/>
</svg>
