<svg width="29" height="29" viewBox="0 0 29 29" fill="none" xmlns="http://www.w3.org/2000/svg">
<path d="M12.1736 3.82917C12.7653 1.39028 16.2347 1.39028 16.8264 3.82917C16.9152 4.19555 17.0892 4.5358 17.3343 4.82222C17.5794 5.10864 17.8887 5.33313 18.237 5.47742C18.5853 5.62172 18.9627 5.68174 19.3386 5.6526C19.7145 5.62345 20.0781 5.50598 20.4 5.30972C22.5431 4.00417 24.9972 6.45694 23.6917 8.60139C23.4957 8.92313 23.3784 9.28658 23.3493 9.66218C23.3203 10.0378 23.3802 10.415 23.5243 10.763C23.6685 11.1111 23.8927 11.4202 24.1788 11.6653C24.4649 11.9105 24.8048 12.0846 25.1708 12.1736C27.6097 12.7653 27.6097 16.2347 25.1708 16.8264C24.8044 16.9152 24.4642 17.0892 24.1778 17.3343C23.8914 17.5794 23.6669 17.8887 23.5226 18.237C23.3783 18.5853 23.3183 18.9627 23.3474 19.3386C23.3765 19.7145 23.494 20.0781 23.6903 20.4C24.9958 22.5431 22.5431 24.9972 20.3986 23.6917C20.0769 23.4957 19.7134 23.3784 19.3378 23.3493C18.9622 23.3203 18.585 23.3802 18.237 23.5243C17.8889 23.6685 17.5798 23.8927 17.3346 24.1788C17.0895 24.4649 16.9154 24.8048 16.8264 25.1708C16.2347 27.6097 12.7653 27.6097 12.1736 25.1708C12.0848 24.8044 11.9108 24.4642 11.6657 24.1778C11.4206 23.8914 11.1113 23.6669 10.763 23.5226C10.4147 23.3783 10.0373 23.3183 9.66141 23.3474C9.28555 23.3765 8.92188 23.494 8.6 23.6903C6.45694 24.9958 4.00278 22.5431 5.30833 20.3986C5.50431 20.0769 5.6216 19.7134 5.65067 19.3378C5.67975 18.9622 5.61978 18.585 5.47566 18.237C5.33153 17.8889 5.10731 17.5798 4.82121 17.3346C4.53512 17.0895 4.19523 16.9154 3.82917 16.8264C1.39028 16.2347 1.39028 12.7653 3.82917 12.1736C4.19555 12.0848 4.5358 11.9108 4.82222 11.6657C5.10864 11.4206 5.33313 11.1113 5.47742 10.763C5.62172 10.4147 5.68174 10.0373 5.6526 9.66141C5.62345 9.28555 5.50598 8.92188 5.30972 8.6C4.00417 6.45694 6.45694 4.00278 8.60139 5.30833C9.98472 6.15278 11.7903 5.40556 12.1736 3.82917Z" stroke="#4B5563" stroke-width="3" stroke-linecap="round" stroke-linejoin="round"/>
<path d="M18.6667 14.5C18.6667 15.6051 18.2277 16.6649 17.4463 17.4463C16.6649 18.2277 15.6051 18.6667 14.5 18.6667C13.3949 18.6667 12.3351 18.2277 11.5537 17.4463C10.7723 16.6649 10.3333 15.6051 10.3333 14.5C10.3333 13.3949 10.7723 12.3351 11.5537 11.5537C12.3351 10.7723 13.3949 10.3333 14.5 10.3333C15.6051 10.3333 16.6649 10.7723 17.4463 11.5537C18.2277 12.3351 18.6667 13.3949 18.6667 14.5Z" stroke="#4B5563" stroke-width="3" stroke-linecap="round" stroke-linejoin="round"/>
</svg>
