<svg width="16" height="18" viewBox="0 0 16 18" fill="none" xmlns="http://www.w3.org/2000/svg">
<path d="M3.55556 3.55556V0.888889C3.55556 0.653141 3.64921 0.427049 3.81591 0.26035C3.9826 0.0936505 4.2087 0 4.44444 0H15.1111C15.3469 0 15.573 0.0936505 15.7397 0.26035C15.9064 0.427049 16 0.653141 16 0.888889V13.3333C16 13.5691 15.9064 13.7952 15.7397 13.9619C15.573 14.1286 15.3469 14.2222 15.1111 14.2222H12.4444V16.8889C12.4444 17.3796 12.0444 17.7778 11.5493 17.7778H0.895111C0.777891 17.7785 0.661686 17.756 0.553175 17.7117C0.444664 17.6673 0.345985 17.602 0.262808 17.5194C0.17963 17.4368 0.113594 17.3386 0.0684927 17.2304C0.0233916 17.1222 0.000114999 17.0061 0 16.8889L0.00266669 4.44444C0.00266669 3.95378 0.402667 3.55556 0.897778 3.55556H3.55556ZM1.78044 5.33333L1.77778 16H10.6667V5.33333H1.78044ZM5.33333 3.55556H12.4444V12.4444H14.2222V1.77778H5.33333V3.55556Z" fill="#9CA3AF"/>
</svg>
