<svg width="17" height="18" viewBox="0 0 17 18" fill="none" xmlns="http://www.w3.org/2000/svg">
<path d="M8.5 5.57576V8.90909M8.5 12.2424H8.50833M16 8.90909C16 9.89401 15.806 10.8693 15.4291 11.7792C15.0522 12.6892 14.4997 13.516 13.8033 14.2124C13.1069 14.9088 12.2801 15.4613 11.3701 15.8382C10.4602 16.2151 9.48491 16.4091 8.5 16.4091C7.51509 16.4091 6.53982 16.2151 5.62987 15.8382C4.71993 15.4613 3.89314 14.9088 3.1967 14.2124C2.50026 13.516 1.94781 12.6892 1.5709 11.7792C1.19399 10.8693 1 9.89401 1 8.90909C1 6.91997 1.79018 5.01231 3.1967 3.60579C4.60322 2.19927 6.51088 1.40909 8.5 1.40909C10.4891 1.40909 12.3968 2.19927 13.8033 3.60579C15.2098 5.01231 16 6.91997 16 8.90909Z" stroke="#E0E6F0" stroke-width="2" stroke-linecap="round" stroke-linejoin="round"/>
</svg>
