<svg width="15" height="17" viewBox="0 0 15 17" fill="none" xmlns="http://www.w3.org/2000/svg">
<path d="M15 3.55263C15 3.746 14.929 3.93263 14.8005 4.07714C14.672 4.22164 14.4949 4.31395 14.3029 4.33658L14.2105 4.34211H13.5434L12.5716 14.2263C12.5187 14.7626 12.2682 15.2601 11.8688 15.622C11.4694 15.9839 10.9497 16.1843 10.4108 16.1842H4.58921C4.05028 16.1843 3.53058 15.9839 3.13121 15.622C2.73184 15.2601 2.48133 14.7626 2.42842 14.2263L1.45658 4.34211H0.789474C0.580092 4.34211 0.379286 4.25893 0.231231 4.11087C0.0831764 3.96282 0 3.76201 0 3.55263C0 3.34325 0.0831764 3.14244 0.231231 2.99439C0.379286 2.84633 0.580092 2.76316 0.789474 2.76316H4.73684C4.73684 2.40029 4.80831 2.04099 4.94717 1.70574C5.08604 1.3705 5.28957 1.06589 5.54615 0.80931C5.80274 0.552727 6.10734 0.349195 6.44259 0.210333C6.77783 0.0714712 7.13714 0 7.5 0C7.86286 0 8.22217 0.0714712 8.55741 0.210333C8.89266 0.349195 9.19726 0.552727 9.45385 0.80931C9.71043 1.06589 9.91396 1.3705 10.0528 1.70574C10.1917 2.04099 10.2632 2.40029 10.2632 2.76316H14.2105C14.4199 2.76316 14.6207 2.84633 14.7688 2.99439C14.9168 3.14244 15 3.34325 15 3.55263ZM9.27632 6.11842C9.13323 6.11843 8.99499 6.17024 8.88716 6.26429C8.77933 6.35833 8.7092 6.48825 8.68974 6.63L8.68421 6.71053V12.2368L8.68974 12.3174C8.70924 12.4591 8.77938 12.589 8.88721 12.683C8.99504 12.777 9.13326 12.8288 9.27632 12.8288C9.41937 12.8288 9.55759 12.777 9.66542 12.683C9.77325 12.589 9.8434 12.4591 9.8629 12.3174L9.86842 12.2368V6.71053L9.8629 6.63C9.84344 6.48825 9.7733 6.35833 9.66547 6.26429C9.55764 6.17024 9.4194 6.11843 9.27632 6.11842ZM5.72368 6.11842C5.5806 6.11843 5.44236 6.17024 5.33453 6.26429C5.2267 6.35833 5.15656 6.48825 5.13711 6.63L5.13158 6.71053V12.2368L5.13711 12.3174C5.1566 12.4591 5.22675 12.589 5.33458 12.683C5.44241 12.777 5.58063 12.8288 5.72368 12.8288C5.86674 12.8288 6.00496 12.777 6.11279 12.683C6.22062 12.589 6.29076 12.4591 6.31026 12.3174L6.31579 12.2368V6.71053L6.31026 6.63C6.2908 6.48825 6.22067 6.35833 6.11284 6.26429C6.00501 6.17024 5.86677 6.11843 5.72368 6.11842ZM7.5 1.57895C7.18593 1.57895 6.88472 1.70371 6.66264 1.92579C6.44055 2.14788 6.31579 2.44909 6.31579 2.76316H8.68421C8.68421 2.44909 8.55945 2.14788 8.33736 1.92579C8.11528 1.70371 7.81407 1.57895 7.5 1.57895Z" fill="#9CA3AF"/>
</svg>
