<svg width="25" height="20" viewBox="0 0 25 20" fill="none" xmlns="http://www.w3.org/2000/svg">
<path d="M24.654 11.1761L16.3203 19.5098C15.5762 20.2539 14.2864 19.7331 14.2864 18.6665V13.9044H7.54006C6.8803 13.9044 6.34952 13.3736 6.34952 12.7139V7.95173C6.34952 7.29198 6.8803 6.7612 7.54006 6.7612H14.2864V1.99905C14.2864 0.937494 15.5712 0.411675 16.3203 1.15576L24.654 9.48951C25.1153 9.9558 25.1153 10.7098 24.654 11.1761ZM9.52428 19.2618V17.2776C9.52428 16.9502 9.25641 16.6823 8.92901 16.6823H4.76214C3.88412 16.6823 3.17476 15.973 3.17476 15.0949V5.57066C3.17476 4.69264 3.88412 3.98328 4.76214 3.98328H8.92901C9.25641 3.98328 9.52428 3.71541 9.52428 3.38801V1.40379C9.52428 1.07639 9.25641 0.80852 8.92901 0.80852H4.76214C2.13304 0.80852 0 2.94156 0 5.57066V15.0949C0 17.724 2.13304 19.8571 4.76214 19.8571H8.92901C9.25641 19.8571 9.52428 19.5892 9.52428 19.2618Z" fill="#4B5563"/>
</svg>
