<svg width="25" height="15" viewBox="0 0 25 15" fill="none" xmlns="http://www.w3.org/2000/svg">
<path fill-rule="evenodd" clip-rule="evenodd" d="M8.33333 13.7539C8.33333 13.4776 8.44308 13.2126 8.63843 13.0173C8.83378 12.8219 9.09873 12.7122 9.375 12.7122H15.625C15.9013 12.7122 16.1662 12.8219 16.3616 13.0173C16.5569 13.2126 16.6667 13.4776 16.6667 13.7539C16.6667 14.0301 16.5569 14.2951 16.3616 14.4904C16.1662 14.6858 15.9013 14.7955 15.625 14.7955H9.375C9.09873 14.7955 8.83378 14.6858 8.63843 14.4904C8.44308 14.2951 8.33333 14.0301 8.33333 13.7539ZM4.16667 7.50386C4.16667 7.22759 4.27641 6.96264 4.47176 6.76729C4.66711 6.57194 4.93207 6.46219 5.20833 6.46219H19.7917C20.0679 6.46219 20.3329 6.57194 20.5282 6.76729C20.7236 6.96264 20.8333 7.22759 20.8333 7.50386C20.8333 7.78012 20.7236 8.04507 20.5282 8.24043C20.3329 8.43578 20.0679 8.54552 19.7917 8.54552H5.20833C4.93207 8.54552 4.66711 8.43578 4.47176 8.24043C4.27641 8.04507 4.16667 7.78012 4.16667 7.50386ZM0 1.25386C0 0.977588 0.109747 0.712636 0.305097 0.517286C0.500448 0.321936 0.765399 0.212189 1.04167 0.212189H23.9583C24.2346 0.212189 24.4996 0.321936 24.6949 0.517286C24.8903 0.712636 25 0.977588 25 1.25386C25 1.53012 24.8903 1.79507 24.6949 1.99042C24.4996 2.18578 24.2346 2.29552 23.9583 2.29552H1.04167C0.765399 2.29552 0.500448 2.18578 0.305097 1.99042C0.109747 1.79507 0 1.53012 0 1.25386Z" fill="#4B5563"/>
</svg>
