<svg width="11" height="14" viewBox="0 0 11 14" fill="none" xmlns="http://www.w3.org/2000/svg">
<path d="M10.5 3.9375C10.5 2.72891 9.52109 1.75 8.3125 1.75C7.10391 1.75 6.125 2.72891 6.125 3.9375C6.125 4.93281 6.78945 5.77227 7.69727 6.0375C7.68086 6.47773 7.58242 6.8168 7.39648 7.04648C6.97539 7.57148 6.04844 7.65898 5.0668 7.74922C4.2957 7.82031 3.49727 7.89687 2.84375 8.21133V4.27383C3.73242 3.99492 4.375 3.16641 4.375 2.1875C4.375 0.978906 3.39609 0 2.1875 0C0.978906 0 0 0.978906 0 2.1875C0 3.16641 0.642578 3.99492 1.53125 4.27383V9.72344C0.642578 10.0051 0 10.8336 0 11.8125C0 13.0211 0.978906 14 2.1875 14C3.39609 14 4.375 13.0211 4.375 11.8125C4.375 10.8828 3.79531 10.0871 2.975 9.77266C3.05977 9.63047 3.18828 9.50469 3.38242 9.40625C3.82539 9.18203 4.48711 9.12188 5.18984 9.05625C6.34375 8.94961 7.65078 8.82656 8.42188 7.8668C8.80469 7.39102 8.99883 6.77852 9.0125 6.01016C9.87656 5.71758 10.5 4.9 10.5 3.9375ZM2.1875 1.3125C2.66875 1.3125 3.0625 1.70625 3.0625 2.1875C3.0625 2.66875 2.66875 3.0625 2.1875 3.0625C1.70625 3.0625 1.3125 2.66875 1.3125 2.1875C1.3125 1.70625 1.70625 1.3125 2.1875 1.3125ZM2.1875 12.6875C1.70625 12.6875 1.3125 12.2937 1.3125 11.8125C1.3125 11.3313 1.70625 10.9375 2.1875 10.9375C2.66875 10.9375 3.0625 11.3313 3.0625 11.8125C3.0625 12.2937 2.66875 12.6875 2.1875 12.6875ZM8.3125 4.8125C7.83125 4.8125 7.4375 4.41875 7.4375 3.9375C7.4375 3.45625 7.83125 3.0625 8.3125 3.0625C8.79375 3.0625 9.1875 3.45625 9.1875 3.9375C9.1875 4.41875 8.79375 4.8125 8.3125 4.8125Z" fill="#4B5563"/>
</svg>
