<svg width="25" height="26" viewBox="0 0 25 26" fill="none" xmlns="http://www.w3.org/2000/svg">
<path d="M12.5 0.953125C5.46875 0.953125 0 6.42188 0 13.4531C0 21.6562 7.42188 25.1719 8.59375 25.1719C9.375 25.1719 9.375 24.7812 9.375 24.3906V22.4375C6.64062 23.2188 5.46875 21.6562 5.07812 20.4844C5.07812 20.4844 5.07812 20.0938 4.29688 19.3125C3.90625 18.9219 2.34375 18.1406 3.90625 18.1406C5.07812 18.1406 5.85938 19.7031 5.85938 19.7031C7.03125 21.2656 8.59375 20.875 9.375 20.4844C9.375 19.7031 10.1562 18.9219 10.1562 18.9219C7.03125 18.5312 4.6875 17.3594 4.6875 13.0625C4.6875 11.5 5.07812 10.3281 5.85938 9.54688C5.85938 9.54688 5.07812 7.98438 5.85938 6.03125C5.85938 6.03125 7.8125 6.03125 9.375 7.59375C10.5469 6.8125 14.4531 6.8125 15.625 7.59375C17.1875 6.03125 19.1406 6.03125 19.1406 6.03125C19.9219 8.76562 19.1406 9.54688 19.1406 9.54688C19.9219 10.3281 20.3125 11.5 20.3125 13.0625C20.3125 17.3594 17.5781 18.5312 14.8438 18.9219C15.2344 19.3125 15.625 20.0938 15.625 21.2656V24.3906C15.625 24.7812 15.625 25.1719 16.4062 25.1719C17.5781 25.1719 25 21.6562 25 13.4531C25 6.42188 19.5312 0.953125 12.5 0.953125Z" />
</svg>
