<svg width="25" height="23" viewBox="0 0 25 23" fill="none" xmlns="http://www.w3.org/2000/svg">
<path fill-rule="evenodd" clip-rule="evenodd" d="M1.82441 2.73046C2.99293 1.5623 4.57757 0.906056 6.22986 0.906056C7.88215 0.906056 9.46679 1.5623 10.6353 2.73046L12.461 4.55464L14.2868 2.73046C14.8616 2.13532 15.5492 1.66062 16.3094 1.33405C17.0696 1.00748 17.8873 0.83558 18.7147 0.828391C19.542 0.821201 20.3626 0.978861 21.1283 1.29217C21.8941 1.60548 22.5899 2.06817 23.1749 2.65323C23.76 3.23829 24.2227 3.93402 24.536 4.69981C24.8493 5.4656 25.007 6.28612 24.9998 7.11349C24.9926 7.94086 24.8207 8.75852 24.4941 9.51875C24.1675 10.279 23.6928 10.9666 23.0977 11.5414L12.461 22.1796L1.82441 11.5414C0.65624 10.3728 0 8.7882 0 7.13592C0 5.48363 0.65624 3.89898 1.82441 2.73046Z" fill="#4B5563"/>
</svg>
