<svg width="17" height="18" viewBox="0 0 17 18" fill="none" xmlns="http://www.w3.org/2000/svg">
<path d="M8.5 5.55538H8.50833M9.33333 12.2221H8.5V8.88872H7.66667L9.33333 12.2221ZM16 8.88872C16 9.87363 15.806 10.8489 15.4291 11.7588C15.0522 12.6688 14.4997 13.4956 13.8033 14.192C13.1069 14.8885 12.2801 15.4409 11.3701 15.8178C10.4602 16.1947 9.48491 16.3887 8.5 16.3887C7.51509 16.3887 6.53982 16.1947 5.62987 15.8178C4.71993 15.4409 3.89314 14.8885 3.1967 14.192C2.50026 13.4956 1.94781 12.6688 1.5709 11.7588C1.19399 10.8489 1 9.87363 1 8.88872C1 6.89959 1.79018 4.99194 3.1967 3.58542C4.60322 2.17889 6.51088 1.38872 8.5 1.38872C10.4891 1.38872 12.3968 2.17889 13.8033 3.58542C15.2098 4.99194 16 6.89959 16 8.88872Z" stroke="#E0E6F0" stroke-width="2" stroke-linecap="round" stroke-linejoin="round"/>
</svg>
