<svg width="18" height="4" viewBox="0 0 18 4" fill="none" xmlns="http://www.w3.org/2000/svg">
<path d="M2.4375 2H2.44688M9 2H9.00938M15.5625 2H15.5719M3.375 2C3.375 2.24864 3.27623 2.4871 3.10041 2.66291C2.9246 2.83873 2.68614 2.9375 2.4375 2.9375C2.18886 2.9375 1.9504 2.83873 1.77459 2.66291C1.59877 2.4871 1.5 2.24864 1.5 2C1.5 1.75136 1.59877 1.5129 1.77459 1.33709C1.9504 1.16127 2.18886 1.0625 2.4375 1.0625C2.68614 1.0625 2.9246 1.16127 3.10041 1.33709C3.27623 1.5129 3.375 1.75136 3.375 2ZM9.9375 2C9.9375 2.24864 9.83873 2.4871 9.66291 2.66291C9.4871 2.83873 9.24864 2.9375 9 2.9375C8.75136 2.9375 8.5129 2.83873 8.33709 2.66291C8.16127 2.4871 8.0625 2.24864 8.0625 2C8.0625 1.75136 8.16127 1.5129 8.33709 1.33709C8.5129 1.16127 8.75136 1.0625 9 1.0625C9.24864 1.0625 9.4871 1.16127 9.66291 1.33709C9.83873 1.5129 9.9375 1.75136 9.9375 2ZM16.5 2C16.5 2.24864 16.4012 2.4871 16.2254 2.66291C16.0496 2.83873 15.8111 2.9375 15.5625 2.9375C15.3139 2.9375 15.0754 2.83873 14.8996 2.66291C14.7238 2.4871 14.625 2.24864 14.625 2C14.625 1.75136 14.7238 1.5129 14.8996 1.33709C15.0754 1.16127 15.3139 1.0625 15.5625 1.0625C15.8111 1.0625 16.0496 1.16127 16.2254 1.33709C16.4012 1.5129 16.5 1.75136 16.5 2Z" stroke="#4B5563" stroke-width="2" stroke-linecap="round" stroke-linejoin="round"/>
</svg>
