<svg width="20" height="20" viewBox="0 0 20 20" fill="none" xmlns="http://www.w3.org/2000/svg">
<path d="M19.9996 10.0001C19.9996 9.49777 19.7055 9.04621 19.2527 8.85012L16.1399 7.49937L19.2516 6.149C19.7055 5.95252 20 5.50097 20 4.99902C20 4.49708 19.7059 4.04553 19.2531 3.84983L10.7287 0.151853C10.2662 -0.0500961 9.73497 -0.0508774 9.27248 0.151072L0.748423 3.84944C0.294135 4.04592 0 4.49747 0 4.99941C0 5.50136 0.294135 5.95291 0.74686 6.14861L3.86008 7.49937L0.748032 8.84973C0.294135 9.04582 0 9.49777 0 10.0001C0 10.5017 0.294135 10.9536 0.74686 11.1493L3.85969 12.4997L0.748423 13.8496C0.294135 14.0461 0 14.4977 0 15C0 15.5016 0.294135 15.9535 0.74686 16.1492L9.27326 19.848C9.5023 19.9479 9.74951 19.9995 9.99941 19.9995C10.2471 19.9987 10.4951 19.9487 10.7256 19.8487L19.2508 16.15C19.7047 15.9535 19.9992 15.5019 19.9992 15C19.9992 14.4977 19.7051 14.0461 19.2524 13.85L16.1399 12.4997L19.2512 11.1497C19.7055 10.9532 19.9996 10.5017 19.9996 10.0001ZM9.9791 1.87057L9.98027 1.87135H9.97793L9.9791 1.87057ZM9.9998 1.87955L17.1934 5.0002L10.0205 8.12865L2.80893 4.99941L9.9998 1.87955ZM17.1946 15.0012L10.0205 18.1288L2.80893 14.9996L6.2155 13.5215L9.27365 14.8481C9.50269 14.948 9.7499 14.9996 9.9998 14.9996C10.2475 14.9988 10.4955 14.9488 10.726 14.8488L13.7841 13.5219L17.1946 15.0012ZM10.0205 13.1286L2.80893 9.99932L6.21589 8.52122L9.27365 9.84776C9.50269 9.94771 9.7499 9.9993 9.9998 9.99932C10.2475 9.99854 10.4955 9.94854 10.726 9.84854L13.7841 8.52161L17.1946 10.0013L10.0205 13.1286Z" fill="#9CA3AF"/>
</svg>
