<svg width="25" height="26" viewBox="0 0 25 26" fill="none" xmlns="http://www.w3.org/2000/svg">
<path d="M9.97523 0.808266C5.1216 1.75555 1.21037 5.65701 0.253316 10.496C-1.55337 19.6271 6.68413 26.4339 12.8903 25.4719C14.9021 25.1594 15.8885 22.8059 14.9656 20.9943C13.8376 18.7774 15.449 16.1895 17.9393 16.1895H21.831C23.5791 16.1895 24.9951 14.7441 25 13.0009C24.9756 5.30544 17.9735 -0.749388 9.97523 0.808266ZM4.68702 16.1895C3.82274 16.1895 3.12448 15.4912 3.12448 14.627C3.12448 13.7627 3.82274 13.0644 4.68702 13.0644C5.55129 13.0644 6.24955 13.7627 6.24955 14.627C6.24955 15.4912 5.55129 16.1895 4.68702 16.1895ZM6.24955 9.93934C5.38527 9.93934 4.68702 9.24108 4.68702 8.37681C4.68702 7.51253 5.38527 6.81427 6.24955 6.81427C7.11383 6.81427 7.81209 7.51253 7.81209 8.37681C7.81209 9.24108 7.11383 9.93934 6.24955 9.93934ZM12.4997 6.81427C11.6354 6.81427 10.9372 6.11601 10.9372 5.25173C10.9372 4.38745 11.6354 3.68919 12.4997 3.68919C13.364 3.68919 14.0622 4.38745 14.0622 5.25173C14.0622 6.11601 13.364 6.81427 12.4997 6.81427ZM18.7499 9.93934C17.8856 9.93934 17.1873 9.24108 17.1873 8.37681C17.1873 7.51253 17.8856 6.81427 18.7499 6.81427C19.6141 6.81427 20.3124 7.51253 20.3124 8.37681C20.3124 9.24108 19.6141 9.93934 18.7499 9.93934Z" fill="#4B5563"/>
</svg>
