<svg width="25" height="26" viewBox="0 0 25 26" fill="none" xmlns="http://www.w3.org/2000/svg">
<path d="M23.9583 10.9792H14.5833V1.60417C14.5833 1.02865 14.1172 0.5625 13.5417 0.5625H11.4583C10.8828 0.5625 10.4167 1.02865 10.4167 1.60417V10.9792H1.04167C0.466146 10.9792 0 11.4453 0 12.0208V14.1042C0 14.6797 0.466146 15.1458 1.04167 15.1458H10.4167V24.5208C10.4167 25.0964 10.8828 25.5625 11.4583 25.5625H13.5417C14.1172 25.5625 14.5833 25.0964 14.5833 24.5208V15.1458H23.9583C24.5339 15.1458 25 14.6797 25 14.1042V12.0208C25 11.4453 24.5339 10.9792 23.9583 10.9792Z" fill="#4B5563"/>
</svg>
