<svg width="25" height="25" viewBox="0 0 25 25" fill="none" xmlns="http://www.w3.org/2000/svg">
<path fill-rule="evenodd" clip-rule="evenodd" d="M12.5 25C15.8152 25 18.9946 23.683 21.3388 21.3388C23.683 18.9946 25 15.8152 25 12.5C25 9.18479 23.683 6.00537 21.3388 3.66117C18.9946 1.31696 15.8152 0 12.5 0C9.18479 0 6.00537 1.31696 3.66117 3.66117C1.31696 6.00537 0 9.18479 0 12.5C0 15.8152 1.31696 18.9946 3.66117 21.3388C6.00537 23.683 9.18479 25 12.5 25ZM14.0625 7.8125C14.0625 7.3981 13.8979 7.00067 13.6049 6.70765C13.3118 6.41462 12.9144 6.25 12.5 6.25C12.0856 6.25 11.6882 6.41462 11.3951 6.70765C11.1021 7.00067 10.9375 7.3981 10.9375 7.8125V10.9375H7.8125C7.3981 10.9375 7.00067 11.1021 6.70765 11.3951C6.41462 11.6882 6.25 12.0856 6.25 12.5C6.25 12.9144 6.41462 13.3118 6.70765 13.6049C7.00067 13.8979 7.3981 14.0625 7.8125 14.0625H10.9375V17.1875C10.9375 17.6019 11.1021 17.9993 11.3951 18.2924C11.6882 18.5854 12.0856 18.75 12.5 18.75C12.9144 18.75 13.3118 18.5854 13.6049 18.2924C13.8979 17.9993 14.0625 17.6019 14.0625 17.1875V14.0625H17.1875C17.6019 14.0625 17.9993 13.8979 18.2924 13.6049C18.5854 13.3118 18.75 12.9144 18.75 12.5C18.75 12.0856 18.5854 11.6882 18.2924 11.3951C17.9993 11.1021 17.6019 10.9375 17.1875 10.9375H14.0625V7.8125Z" fill="#4B5563"/>
</svg>
