<svg width="18" height="18" viewBox="0 0 18 18" fill="none" xmlns="http://www.w3.org/2000/svg">
<path d="M10.6777 0.133205L11.351 0.281521L11.8955 0.476851L12.336 0.700724L12.6712 0.940269L12.9248 1.19381L13.1112 1.44678L13.2304 1.69248L13.3037 1.91636L13.3356 2.10889L13.3507 2.26056L13.3418 2.35683V6.34178L13.3037 6.81136L13.2074 7.22272L13.0502 7.56693L12.8576 7.84957L12.6337 8.0796L12.3892 8.26597L12.1267 8.40925L11.8642 8.51391L11.6196 8.59003L11.3957 8.63928L11.2032 8.67119L11.0459 8.6863H6.5886L6.07593 8.7238L5.63546 8.82622L5.26215 8.99244L4.956 9.19337L4.70806 9.43292L4.50658 9.69205L4.35826 9.9635L4.24688 10.2372L4.17133 10.4991L4.11928 10.7387L4.08961 10.9396L4.07562 11.0969V13.3798H2.41056L2.25385 13.3557L2.04341 13.3037L1.80778 13.2164L1.54529 13.0821L1.2772 12.8873L1.00911 12.6186L0.746619 12.2744L0.507634 11.834L0.297192 11.2894L0.142719 10.6334L0.0380585 9.84932L0 8.93144L0.044215 8.02195L0.163428 7.24679L0.344206 6.597L0.583191 6.06642L0.851839 5.64106L1.14903 5.3142L1.46413 5.06626L1.77588 4.88884L2.07587 4.76963L2.34452 4.69351L2.5835 4.65545L2.76092 4.6493H2.88013L2.92715 4.65545H9.01371V4.03756H4.65545L4.6493 1.9852L4.6353 1.70816L4.67336 1.45462L4.75452 1.22459L4.87989 1.01415L5.06626 0.822176L5.29965 0.649793L5.58173 0.501477L5.91138 0.364354L6.29029 0.254097L6.7246 0.163987L7.19922 0.0906688L7.7298 0.044215L8.30459 0.0151115L8.93144 0L9.87842 0.0380585L10.6777 0.133205ZM5.97855 1.61077L5.80616 1.85535L5.74516 2.1615L5.80616 2.46821L5.97855 2.72118L6.22313 2.88741L6.52927 2.95457L6.83542 2.88741L7.08 2.72118L7.25239 2.46821L7.31339 2.1615L7.25239 1.85535L7.08 1.61077L6.83542 1.44734L6.52927 1.38074L6.22313 1.44734L5.97855 1.61077ZM15.7467 4.55751L15.9532 4.60452L16.1922 4.69183L16.4547 4.82616L16.7228 5.02708L16.9914 5.28957L17.2534 5.63938L17.4924 6.07873L17.7 6.62442L17.8573 7.28317L17.9619 8.05833L18 8.97621L17.9535 9.89465L17.8332 10.6698L17.6558 11.3107L17.4168 11.8412L17.1482 12.2666L16.8482 12.6024L16.5364 12.847L16.2213 13.0278L15.9241 13.147L15.6555 13.2141L15.4165 13.2522L15.2391 13.2662L15.1199 13.2578H8.98349V13.8695H13.3418L13.3507 15.9308L13.3647 16.1989L13.3266 16.4525L13.2455 16.6825L13.1173 16.898L12.9309 17.0844L12.7009 17.2657L12.4183 17.414L12.0886 17.5422L11.7097 17.6524L11.2754 17.7487L10.798 17.8159L10.2702 17.8679L9.69261 17.897L9.06576 17.906L8.11878 17.8769L7.32011 17.7716L6.64905 17.6233L6.10447 17.437L5.664 17.2125L5.32875 16.9646L5.07522 16.711L4.88884 16.4581L4.76963 16.2124L4.69351 15.9885L4.66441 15.8021L4.6493 15.6527L4.65545 15.557V11.572L4.69351 11.0935L4.79257 10.6883L4.94705 10.3474L5.14238 10.0614L5.36625 9.82581L5.61195 9.64504L5.87388 9.4956L6.13358 9.39094L6.38152 9.31482L6.60595 9.27173L6.79792 9.24262L7.05146 9.21856H11.4097L11.9252 9.18106L12.3657 9.07864L12.739 8.92136L13.0451 8.71148L13.2908 8.47194L13.4917 8.2128L13.6434 7.94136L13.7548 7.67327L13.8304 7.41358L13.8835 7.17459L13.9126 6.96471L13.9266 6.80744V4.52449H15.4865L15.5917 4.53064L15.7467 4.55751ZM10.9161 15.1915L10.7437 15.4394L10.6855 15.7462L10.7437 16.0523L10.9161 16.2969L11.164 16.4687L11.4702 16.5269L11.7763 16.4687L12.0209 16.2969L12.1933 16.0523L12.2543 15.7462L12.1933 15.4394L12.0209 15.1915L11.7763 15.0197L11.4702 14.9615L11.164 15.0197L10.9161 15.1915Z" fill="#9CA3AF"/>
</svg>
