<svg width="20" height="19" viewBox="0 0 20 19" fill="none" xmlns="http://www.w3.org/2000/svg">
<path opacity="0.7" d="M10 10.8703C9.62112 10.8703 9.25776 10.7123 8.98985 10.431C8.72194 10.1496 8.57143 9.76812 8.57143 9.37029C8.57143 8.97247 8.72194 8.59094 8.98985 8.30963C9.25776 8.02833 9.62112 7.87029 10 7.87029C10.3789 7.87029 10.7422 8.02833 11.0102 8.30963C11.2781 8.59094 11.4286 8.97247 11.4286 9.37029C11.4286 9.76812 11.2781 10.1496 11.0102 10.431C10.7422 10.7123 10.3789 10.8703 10 10.8703ZM9.49714 13.8643C9.66381 14.0743 9.83143 14.2783 10 14.4733C10.1686 14.2783 10.3362 14.0753 10.5029 13.8643C10.1677 13.8718 9.83234 13.8718 9.49714 13.8643ZM7.59714 13.7393C6.86577 13.6594 6.13924 13.5365 5.42095 13.3713C5.34952 13.7213 5.29524 14.0613 5.25905 14.3873C5.07809 15.9703 5.33048 16.9323 5.71429 17.1643C6.0981 17.3973 7.01714 17.1453 8.23333 16.1903C8.48381 15.9933 8.73619 15.7743 8.98952 15.5353C8.49381 14.9644 8.02895 14.3648 7.59714 13.7393ZM14.579 13.3713C13.861 13.5376 13.1344 13.6605 12.4029 13.7393C11.971 14.3648 11.5062 14.9644 11.0105 15.5353C11.2638 15.7753 11.5162 15.9933 11.7667 16.1903C12.9829 17.1453 13.9019 17.3973 14.2857 17.1643C14.6695 16.9323 14.921 15.9703 14.7419 14.3873C14.7026 14.0462 14.6476 13.7072 14.579 13.3713ZM15.96 12.9843C16.5095 15.6233 16.221 17.7243 15 18.4643C13.779 19.2043 11.9019 18.4163 10 16.5973C8.09809 18.4163 6.22095 19.2033 5 18.4633C3.77905 17.7233 3.49048 15.6233 4.03905 12.9833C1.58762 12.1643 0 10.8503 0 9.37029C0 7.89029 1.58762 6.57729 4.03905 5.75629C3.49048 3.11729 3.77905 1.01629 5 0.276292C6.22095 -0.463708 8.09809 0.324292 10 2.14329C11.9019 0.324292 13.779 -0.462708 15 0.277292C16.221 1.01729 16.5095 3.11729 15.961 5.75729C18.4124 6.57629 20 7.89029 20 9.37029C20 10.8503 18.4124 12.1633 15.961 12.9843H15.96ZM8.98857 3.20529C8.74637 2.9751 8.49437 2.75654 8.23333 2.55029C7.01714 1.59529 6.0981 1.34329 5.71429 1.57629C5.33048 1.80829 5.07905 2.77029 5.2581 4.35329C5.29619 4.68029 5.34952 5.01929 5.42 5.36929C6.1386 5.20403 6.86545 5.08117 7.59714 5.00129C8.04952 4.34829 8.51619 3.74729 8.98952 3.20529H8.98857ZM12.4029 5.00129C13.1667 5.08529 13.8962 5.21029 14.579 5.36929C14.6505 5.01929 14.7048 4.67929 14.741 4.35329C14.9219 2.77029 14.6695 1.80829 14.2857 1.57629C13.9019 1.34329 12.9829 1.59529 11.7667 2.55029C11.5053 2.75652 11.253 2.97507 11.0105 3.20529C11.4838 3.74729 11.9505 4.34829 12.4029 5.00129ZM10.5029 4.87629C10.3362 4.66629 10.1686 4.46229 10 4.26729C9.83143 4.46229 9.66381 4.66529 9.49714 4.87629C9.83234 4.86882 10.1677 4.86882 10.5029 4.87629ZM6.54476 12.0743C6.37101 11.7734 6.20335 11.4687 6.0419 11.1603C5.95143 11.4173 5.86762 11.6703 5.79143 11.9213C6.03619 11.9773 6.28857 12.0283 6.54476 12.0743ZM8.38476 12.3083C9.46011 12.3922 10.5399 12.3922 11.6152 12.3083C12.2221 11.3722 12.762 10.3902 13.2305 9.37029C12.762 8.35037 12.2221 7.36834 11.6152 6.43229C10.5399 6.34843 9.46011 6.34843 8.38476 6.43229C7.7779 7.36834 7.23801 8.35037 6.76952 9.37029C7.23801 10.3902 7.7779 11.3722 8.38476 12.3083ZM13.9581 7.58029C14.0486 7.32329 14.1324 7.07029 14.2086 6.81929C13.9589 6.7624 13.708 6.71139 13.4562 6.66629C13.6296 6.9672 13.797 7.27194 13.9581 7.58029ZM4.40952 7.20729C4.08571 7.31729 3.77905 7.43729 3.49143 7.56729C2.09619 8.19529 1.42857 8.90529 1.42857 9.37029C1.42857 9.83529 2.09524 10.5453 3.49143 11.1733C3.77905 11.3033 4.08571 11.4233 4.40952 11.5333C4.62095 10.8333 4.88286 10.1073 5.19524 9.37029C4.89507 8.66526 4.63276 7.94313 4.40952 7.20729ZM5.79048 6.81929C5.86762 7.06929 5.95143 7.32329 6.0419 7.57929C6.20336 7.27126 6.37102 6.96686 6.54476 6.66629C6.28762 6.71229 6.03524 6.76329 5.79048 6.81929ZM15.5905 11.5333C15.9143 11.4233 16.221 11.3033 16.5086 11.1733C17.9038 10.5453 18.5714 9.83529 18.5714 9.37029C18.5714 8.90529 17.9048 8.19529 16.5086 7.56729C16.2079 7.43279 15.9015 7.31267 15.5905 7.20729C15.379 7.90729 15.1171 8.63329 14.8048 9.37029C15.1171 10.1073 15.379 10.8323 15.5905 11.5333ZM14.2095 11.9213C14.1308 11.6661 14.047 11.4128 13.9581 11.1613C13.7966 11.4693 13.629 11.7737 13.4552 12.0743C13.7124 12.0283 13.9648 11.9773 14.2095 11.9213Z" fill="#4B5563"/>
</svg>
