<svg width="20" height="21" viewBox="0 0 20 21" fill="none" xmlns="http://www.w3.org/2000/svg">
<path d="M11.7585 10.3333L19.8955 2.18019C20.0348 2.0409 20.0348 1.81456 19.8955 1.67528C19.0589 0.83867 17.7018 0.83867 16.8652 1.67528L9.99196 8.56322L8.06786 6.63555C8.38929 6.03465 8.57143 5.34805 8.57143 4.61903C8.57143 2.25206 6.65268 0.333313 4.28571 0.333313C1.91875 0.333313 0 2.25206 0 4.61903C0 6.98599 1.91875 8.90474 4.28571 8.90474C5.01384 8.90474 5.69911 8.72305 6.29955 8.40296L8.22589 10.3333L6.29955 12.2637C5.69911 11.9436 5.01384 11.7619 4.28571 11.7619C1.91875 11.7619 0 13.6806 0 16.0476C0 18.4146 1.91875 20.3333 4.28571 20.3333C6.65268 20.3333 8.57143 18.4146 8.57143 16.0476C8.57143 15.3186 8.38929 14.632 8.06786 14.0311L9.99196 12.1034L16.8647 18.9913C17.7013 19.828 19.0585 19.828 19.8951 18.9913C20.0344 18.8521 20.0344 18.6257 19.8951 18.4864L11.7585 10.3333ZM4.28571 6.76188C3.10402 6.76188 2.14286 5.80072 2.14286 4.61903C2.14286 3.43733 3.10402 2.47617 4.28571 2.47617C5.46741 2.47617 6.42857 3.43733 6.42857 4.61903C6.42857 5.80072 5.46741 6.76188 4.28571 6.76188ZM4.28571 18.1905C3.10402 18.1905 2.14286 17.2293 2.14286 16.0476C2.14286 14.8659 3.10402 13.9047 4.28571 13.9047C5.46741 13.9047 6.42857 14.8659 6.42857 16.0476C6.42857 17.2293 5.46741 18.1905 4.28571 18.1905Z" fill="#4B5563"/>
</svg>
