<svg width="14" height="14" viewBox="0 0 14 14" fill="none" xmlns="http://www.w3.org/2000/svg">
<path d="M6.10395 0.94603C6.38643 0.0788216 7.61333 0.0788216 7.89487 0.94603L8.90237 4.04576C8.96393 4.23454 9.08358 4.39903 9.24424 4.51571C9.4049 4.6324 9.59833 4.69531 9.79689 4.69546H13.0567C13.9691 4.69546 14.3476 5.86304 13.6103 6.39975L10.9739 8.31495C10.8129 8.43174 10.693 8.5965 10.6315 8.78561C10.5699 8.97472 10.5698 9.17848 10.6311 9.36765L11.6386 12.4674C11.9211 13.3346 10.9277 14.0568 10.1886 13.5201L7.55213 11.6049C7.39131 11.4881 7.19767 11.4253 6.99894 11.4253C6.80021 11.4253 6.60657 11.4881 6.44575 11.6049L3.80929 13.5201C3.07108 14.0568 2.07863 13.3346 2.36017 12.4674L3.36768 9.36765C3.42905 9.17848 3.42894 8.97472 3.36736 8.78561C3.30579 8.5965 3.18592 8.43174 3.02494 8.31495L0.389413 6.40069C-0.347855 5.86398 0.0316074 4.6964 0.943071 4.6964H4.20193C4.40065 4.69646 4.5943 4.63363 4.75514 4.51693C4.91599 4.40023 5.03578 4.23563 5.09739 4.0467L6.10489 0.946972L6.10395 0.94603Z" fill="#4B5563"/>
</svg>
