<svg width="20" height="21" viewBox="0 0 20 21" fill="none" xmlns="http://www.w3.org/2000/svg">
<path d="M19.174 1.15935L17.0706 3.26278C15.2611 1.45298 12.7615 0.333344 10 0.333344C4.64629 0.333344 0.275161 4.54052 0.0125 9.82903C-0.00116934 10.1039 0.220766 10.3333 0.496008 10.3333H1.62685C1.88302 10.3333 2.09512 10.1337 2.10964 9.87794C2.3452 5.72242 5.7844 2.43012 10 2.43012C12.184 2.43012 14.1596 3.31411 15.5893 4.74407L13.4067 6.92669C13.1019 7.23153 13.3177 7.7527 13.7488 7.7527H19.5161C19.7833 7.7527 20 7.53604 20 7.26883V1.50153C20 1.07044 19.4788 0.854553 19.174 1.15935ZM19.504 10.3333H18.3731C18.117 10.3333 17.9049 10.533 17.8904 10.7887C17.6548 14.9443 14.2156 18.2366 10 18.2366C7.81601 18.2366 5.84044 17.3526 4.41073 15.9226L6.59331 13.74C6.89815 13.4352 6.68226 12.914 6.25117 12.914H0.483871C0.216653 12.914 0 13.1306 0 13.3979V19.1652C0 19.5962 0.52121 19.8121 0.826008 19.5073L2.92944 17.4039C4.73891 19.2137 7.23855 20.3333 10 20.3333C15.3537 20.3333 19.7248 16.1262 19.9875 10.8377C20.0012 10.5627 19.7792 10.3333 19.504 10.3333Z" fill="#4B5563"/>
</svg>
