<svg width="20" height="16" viewBox="0 0 20 16" fill="none" xmlns="http://www.w3.org/2000/svg">
<path d="M11.8882 2.87905L2.32175 7.55439C2.0618 7.68141 1.93808 7.96864 2.03873 8.21157L2.31199 8.87124L0.308667 9.70109C0.186159 9.75184 0.0888264 9.84917 0.0380745 9.97168C-0.0126774 10.0942 -0.0126921 10.2318 0.0380337 10.3544L0.664811 11.8676C0.715557 11.9901 0.812889 12.0874 0.935399 12.1382C1.05791 12.1889 1.19556 12.1889 1.31808 12.1382L3.3214 11.3083L3.5946 11.968C3.69518 12.2109 3.98577 12.3265 4.25934 12.2325L8.2282 10.8693C8.23405 10.8769 8.24046 10.884 8.24645 10.8915L6.76309 15.3419C6.73804 15.4171 6.7312 15.4971 6.74314 15.5754C6.75509 15.6537 6.78547 15.7281 6.83179 15.7924C6.87811 15.8566 6.93904 15.909 7.00956 15.9451C7.08008 15.9812 7.15817 16 7.2374 16H7.76432C7.86926 16 7.97154 15.967 8.05667 15.9056C8.14179 15.8443 8.20545 15.7577 8.23863 15.6581L9.55621 11.7051C9.84951 11.765 10.1519 11.765 10.4452 11.7051L11.7628 15.6581C11.796 15.7577 11.8597 15.8443 11.9448 15.9056C12.0299 15.967 12.1322 16 12.2372 16H12.764C12.8432 16 12.9213 15.9812 12.9919 15.9451C13.0624 15.909 13.1233 15.8567 13.1697 15.7924C13.216 15.7281 13.2464 15.6537 13.2583 15.5754C13.2703 15.4971 13.2634 15.4171 13.2384 15.3419L11.755 10.8915C12.0737 10.4975 12.2484 10.0067 12.2506 9.49997C12.2506 9.49588 12.2494 9.49216 12.2494 9.48807L14.3296 8.77352L11.8882 2.87905ZM10 10.25C9.85167 10.25 9.70666 10.206 9.58332 10.1236C9.45998 10.0412 9.36385 9.92403 9.30709 9.78699C9.25032 9.64994 9.23547 9.49914 9.26441 9.35365C9.29335 9.20816 9.36478 9.07452 9.46967 8.96963C9.57456 8.86474 9.7082 8.79331 9.85369 8.76437C9.99917 8.73543 10.15 8.75029 10.287 8.80705C10.4241 8.86382 10.5412 8.95995 10.6236 9.08329C10.706 9.20663 10.75 9.35163 10.75 9.49997C10.7498 9.69882 10.6707 9.88946 10.5301 10.0301C10.3895 10.1707 10.1989 10.2498 10 10.25ZM19.9619 6.77588L17.2833 0.308651C17.2582 0.247989 17.2214 0.192868 17.1749 0.146436C17.1285 0.100005 17.0734 0.0631721 17.0127 0.0380412C16.9521 0.0129102 16.8871 -2.65842e-05 16.8214 -3.05167e-05C16.7558 -3.44492e-05 16.6908 0.0128946 16.6301 0.0380183L12.9639 1.55671C12.8414 1.60747 12.7441 1.70482 12.6934 1.82732C12.6426 1.94983 12.6426 2.08748 12.6934 2.20998L15.372 8.67721C15.4227 8.79972 15.52 8.89706 15.6425 8.94781C15.7651 8.99857 15.9027 8.99858 16.0252 8.94784L19.6913 7.42915C19.752 7.40403 19.8071 7.3672 19.8536 7.32077C19.9 7.27435 19.9368 7.21923 19.962 7.15856C19.9871 7.0979 20 7.03288 20 6.96722C20 6.90156 19.9871 6.83654 19.9619 6.77588Z" fill="#9CA3AF"/>
</svg>
