<svg width="18" height="18" viewBox="0 0 18 18" fill="none" xmlns="http://www.w3.org/2000/svg">
<path d="M0 18H18V0H0V18ZM14.5046 8.28225C14.9361 8.38385 15.3283 8.60996 15.6324 8.9325C15.7967 9.108 16.0425 9.43031 16.0633 9.50963C16.0689 9.53325 15.2871 10.0575 14.8123 10.3506C14.7949 10.3624 14.7246 10.2892 14.6481 10.1745C14.4169 9.83756 14.1733 9.69131 13.8015 9.66488C13.2564 9.62944 12.9049 9.91406 12.9077 10.3916C12.9048 10.5085 12.9309 10.6242 12.9836 10.7286C13.104 10.9777 13.3296 11.1268 14.0265 11.4289C15.3158 11.9824 15.8664 12.3486 16.209 12.8672C16.5926 13.4471 16.6776 14.373 16.4199 15.0643C16.1331 15.8113 15.4237 16.3209 14.4276 16.488C14.1199 16.5437 13.3875 16.5347 13.0562 16.4734C12.3328 16.3446 11.6471 15.9868 11.2252 15.5182C11.0582 15.3366 10.7359 14.859 10.7567 14.8269C10.7657 14.8151 10.8388 14.7684 10.9209 14.7212L11.5892 14.3342L12.1078 14.0327L12.2164 14.1936C12.3688 14.4248 12.6996 14.7414 12.8993 14.8466C13.4736 15.1515 14.2616 15.1076 14.6514 14.7589C14.8095 14.6273 14.8978 14.4248 14.886 14.22C14.886 14.0119 14.8596 13.9185 14.751 13.7627C14.6104 13.5636 14.3263 13.3937 13.5146 13.0421C12.5859 12.6405 12.1843 12.3947 11.8215 11.9993C11.5931 11.739 11.4242 11.432 11.3265 11.0998C11.259 10.845 11.2416 10.206 11.2944 9.95119C11.4851 9.05175 12.1646 8.42794 13.14 8.24344C13.4567 8.18213 14.1941 8.20575 14.5046 8.28225ZM10.2802 9.03544L10.2859 9.77063H7.94194V16.4301H6.28369V9.77063H3.94313V9.05006C3.94313 8.64844 3.95213 8.31487 3.96338 8.30587C3.97237 8.29406 5.39606 8.28844 7.12463 8.29125L10.2712 8.30025L10.2802 9.03544Z" fill="#9CA3AF"/>
</svg>
