<svg width="25" height="26" viewBox="0 0 25 26" fill="none" xmlns="http://www.w3.org/2000/svg">
<path fill-rule="evenodd" clip-rule="evenodd" d="M0.609359 1.21045C0.999649 0.820279 1.52892 0.601092 2.08079 0.601092C2.63266 0.601092 3.16194 0.820279 3.55223 1.21045L12.487 10.1452L21.4217 1.21045C21.6137 1.01167 21.8434 0.853118 22.0973 0.744043C22.3512 0.634967 22.6243 0.577553 22.9007 0.575152C23.177 0.57275 23.4511 0.625409 23.7069 0.730055C23.9626 0.834702 24.195 0.98924 24.3904 1.18465C24.5858 1.38007 24.7404 1.61244 24.845 1.86822C24.9497 2.12399 25.0023 2.39805 24.9999 2.6744C24.9975 2.95074 24.9401 3.22384 24.831 3.47776C24.722 3.73168 24.5634 3.96133 24.3646 4.15332L15.4299 13.0881L24.3646 22.0228C24.7437 22.4154 24.9535 22.9411 24.9488 23.4868C24.944 24.0325 24.7251 24.5545 24.3393 24.9404C23.9534 25.3262 23.4314 25.5451 22.8857 25.5499C22.34 25.5546 21.8143 25.3448 21.4217 24.9657L12.487 16.031L3.55223 24.9657C3.1597 25.3448 2.63398 25.5546 2.08828 25.5499C1.54259 25.5451 1.02059 25.3262 0.634711 24.9404C0.248832 24.5545 0.0299502 24.0325 0.0252083 23.4868C0.0204663 22.9411 0.230244 22.4154 0.609359 22.0228L9.54412 13.0881L0.609359 4.15332C0.219187 3.76303 0 3.23376 0 2.68189C0 2.13002 0.219187 1.60074 0.609359 1.21045Z" fill="#4B5563"/>
</svg>
